#Comment line ignore any data following # character 
#Hierarchical Translation and Rotation (.htr) file 
[Header]	
#Header keywords are followed by a single value 
FileType HTR		#Single word string
DataType HTRS		#Translation followed by rotation and scale data
FileVersion 1		#integer
NumSegments 84		#integer
NumFrames 2		#integer
DataFrameRate 30		#integer, data frame rate in this file
EulerRotationOrder ZYX
CalibrationUnits mm
RotationUnits Degrees
GlobalAxisofGravity Y
BoneLengthAxis Y
ScaleFactor 1.00
[SegmentNames&Hierarchy]
#CHILD	PARENT
MASTER GLOBAL
root MASTER
chest root
L_mid_tent01 root
R_mid_tent01 root
spine01 root
Bip01_Neck chest
L_humerus chest
R_humerus chest
weapon_bone chest
Bip01_Head Bip01_Neck
eye_left_bone Bip01_Head
eye_right_bone Bip01_Head
L_forearm L_humerus
L_front_hand L_forearm
L_weapon_bone L_forearm
L_front_hand01_01 L_front_hand
L_front_hand02_01 L_front_hand
L_front_hand03_01 L_front_hand
L_front_hand01_02 L_front_hand01_01
L_front_hand02_02 L_front_hand02_01
L_front_hand03_02 L_front_hand03_01
R_forearm R_humerus
R_front_hand R_forearm
R_weapon_bone R_forearm
R_front_hand01_01 R_front_hand
R_front_hand02_01 R_front_hand
R_front_hand03_01 R_front_hand
R_front_hand01_02 R_front_hand01_01
R_front_hand02_02 R_front_hand02_01
R_front_hand03_02 R_front_hand03_01
null_rope01_connect L_mid_tent01
Rope1_Seg01 null_rope01_connect
Rope1_Seg02 Rope1_Seg01
Rope1_Seg03 Rope1_Seg02
Rope1_Seg04 Rope1_Seg03
Rope1_Seg05 Rope1_Seg04
Rope1_Seg06 Rope1_Seg05
Rope1_Seg07 Rope1_Seg06
Rope1_Seg09 Rope1_Seg07
L_mid_hand01 Rope1_Seg09
L_mid_hand02 Rope1_Seg09
L_mid_hand03 Rope1_Seg09
null_rope02_connect R_mid_tent01
Rope2_Seg01 null_rope02_connect
Rope2_Seg02 Rope2_Seg01
Rope2_Seg03 Rope2_Seg02
Rope2_Seg04 Rope2_Seg03
Rope2_Seg05 Rope2_Seg04
Rope2_Seg06 Rope2_Seg05
Rope2_Seg07 Rope2_Seg06
Rope2_Seg09 Rope2_Seg07
R_mid_hand01 Rope2_Seg09
R_mid_hand02 Rope2_Seg09
R_mid_hand03 Rope2_Seg09
spine02 spine01
spine03 spine02
pelvis spine03
null_rope03_connect pelvis
null_rope04_connect pelvis
Rope3_Seg01 null_rope03_connect
Rope3_Seg02 Rope3_Seg01
Rope3_Seg03 Rope3_Seg02
Rope3_Seg04 Rope3_Seg03
Rope3_Seg05 Rope3_Seg04
Rope3_Seg06 Rope3_Seg05
Rope3_Seg07 Rope3_Seg06
Rope3_Seg08 Rope3_Seg07
Rope3_Seg09 Rope3_Seg08
R_rear_hand01 Rope3_Seg09
R_rear_hand02 Rope3_Seg09
R_rear_hand03 Rope3_Seg09
Rope4_Seg01 null_rope04_connect
Rope4_Seg02 Rope4_Seg01
Rope4_Seg03 Rope4_Seg02
Rope4_Seg04 Rope4_Seg03
Rope4_Seg05 Rope4_Seg04
Rope4_Seg06 Rope4_Seg05
Rope4_Seg07 Rope4_Seg06
Rope4_Seg08 Rope4_Seg07
Rope4_Seg09 Rope4_Seg08
L_rear_hand01 Rope4_Seg09
L_rear_hand02 Rope4_Seg09
L_rear_hand03 Rope4_Seg09
[BasePosition]
#SegmentName Tx, Ty, Tz, Rx, Ry, Rz, BoneLength
MASTER 0.000000 0.000000 0.000000 -90.000000 0.000000 0.000000 10.000000 
root 0.000000 0.000000 0.000000 0.000000 0.000000 0.000000 10.000000 
chest 0.000000 0.000000 0.000000 0.000000 0.000000 0.000000 10.000000 
L_mid_tent01 0.000000 0.000000 0.000000 0.000000 0.000000 0.000000 10.000000 
R_mid_tent01 0.000000 0.000000 0.000000 0.000000 0.000000 0.000000 10.000000 
spine01 0.000000 0.000000 0.000000 0.000000 0.000000 0.000000 10.000000 
Bip01_Neck 0.000000 0.000000 0.000000 0.000000 0.000000 0.000000 10.000000 
L_humerus 0.000000 0.000000 0.000000 0.000000 0.000000 0.000000 10.000000 
R_humerus 0.000000 0.000000 0.000000 0.000000 0.000000 0.000000 10.000000 
weapon_bone 0.000000 0.000000 0.000000 0.000000 0.000000 0.000000 10.000000 
Bip01_Head 0.000000 0.000000 0.000000 0.000000 0.000000 0.000000 10.000000 
eye_left_bone 0.000000 0.000000 0.000000 0.000000 0.000000 0.000000 10.000000 
eye_right_bone 0.000000 0.000000 0.000000 0.000000 0.000000 0.000000 10.000000 
L_forearm 0.000000 0.000000 0.000000 0.000000 0.000000 0.000000 10.000000 
L_front_hand 0.000000 0.000000 0.000000 0.000000 0.000000 0.000000 10.000000 
L_weapon_bone 0.000000 0.000000 0.000000 0.000000 0.000000 0.000000 10.000000 
L_front_hand01_01 0.000000 0.000000 0.000000 0.000000 0.000000 0.000000 10.000000 
L_front_hand02_01 0.000000 0.000000 0.000000 0.000000 0.000000 0.000000 10.000000 
L_front_hand03_01 0.000000 0.000000 0.000000 0.000000 0.000000 0.000000 10.000000 
L_front_hand01_02 0.000000 0.000000 0.000000 0.000000 0.000000 0.000000 10.000000 
L_front_hand02_02 0.000000 0.000000 0.000000 0.000000 0.000000 0.000000 10.000000 
L_front_hand03_02 0.000000 0.000000 0.000000 0.000000 0.000000 0.000000 10.000000 
R_forearm 0.000000 0.000000 0.000000 0.000000 0.000000 0.000000 10.000000 
R_front_hand 0.000000 0.000000 0.000000 0.000000 0.000000 0.000000 10.000000 
R_weapon_bone 0.000000 0.000000 0.000000 0.000000 0.000000 0.000000 10.000000 
R_front_hand01_01 0.000000 0.000000 0.000000 0.000000 0.000000 0.000000 10.000000 
R_front_hand02_01 0.000000 0.000000 0.000000 0.000000 0.000000 0.000000 10.000000 
R_front_hand03_01 0.000000 0.000000 0.000000 0.000000 0.000000 0.000000 10.000000 
R_front_hand01_02 0.000000 0.000000 0.000000 0.000000 0.000000 0.000000 10.000000 
R_front_hand02_02 0.000000 0.000000 0.000000 0.000000 0.000000 0.000000 10.000000 
R_front_hand03_02 0.000000 0.000000 0.000000 0.000000 0.000000 0.000000 10.000000 
null_rope01_connect 0.000000 0.000000 0.000000 0.000000 0.000000 0.000000 10.000000 
Rope1_Seg01 0.000000 0.000000 0.000000 0.000000 0.000000 0.000000 10.000000 
Rope1_Seg02 0.000000 0.000000 0.000000 0.000000 0.000000 0.000000 10.000000 
Rope1_Seg03 0.000000 0.000000 0.000000 0.000000 0.000000 0.000000 10.000000 
Rope1_Seg04 0.000000 0.000000 0.000000 0.000000 0.000000 0.000000 10.000000 
Rope1_Seg05 0.000000 0.000000 0.000000 0.000000 0.000000 0.000000 10.000000 
Rope1_Seg06 0.000000 0.000000 0.000000 0.000000 0.000000 0.000000 10.000000 
Rope1_Seg07 0.000000 0.000000 0.000000 0.000000 0.000000 0.000000 10.000000 
Rope1_Seg09 0.000000 0.000000 0.000000 0.000000 0.000000 0.000000 10.000000 
L_mid_hand01 0.000000 0.000000 0.000000 0.000000 0.000000 0.000000 10.000000 
L_mid_hand02 0.000000 0.000000 0.000000 0.000000 0.000000 0.000000 10.000000 
L_mid_hand03 0.000000 0.000000 0.000000 0.000000 0.000000 0.000000 10.000000 
null_rope02_connect 0.000000 0.000000 0.000000 0.000000 0.000000 0.000000 10.000000 
Rope2_Seg01 0.000000 0.000000 0.000000 0.000000 0.000000 0.000000 10.000000 
Rope2_Seg02 0.000000 0.000000 0.000000 0.000000 0.000000 0.000000 10.000000 
Rope2_Seg03 0.000000 0.000000 0.000000 0.000000 0.000000 0.000000 10.000000 
Rope2_Seg04 0.000000 0.000000 0.000000 0.000000 0.000000 0.000000 10.000000 
Rope2_Seg05 0.000000 0.000000 0.000000 0.000000 0.000000 0.000000 10.000000 
Rope2_Seg06 0.000000 0.000000 0.000000 0.000000 0.000000 0.000000 10.000000 
Rope2_Seg07 0.000000 0.000000 0.000000 0.000000 0.000000 0.000000 10.000000 
Rope2_Seg09 0.000000 0.000000 0.000000 0.000000 0.000000 0.000000 10.000000 
R_mid_hand01 0.000000 0.000000 0.000000 0.000000 0.000000 0.000000 10.000000 
R_mid_hand02 0.000000 0.000000 0.000000 0.000000 0.000000 0.000000 10.000000 
R_mid_hand03 0.000000 0.000000 0.000000 0.000000 0.000000 0.000000 10.000000 
spine02 0.000000 0.000000 0.000000 0.000000 0.000000 0.000000 10.000000 
spine03 0.000000 0.000000 0.000000 0.000000 0.000000 0.000000 10.000000 
pelvis 0.000000 0.000000 0.000000 0.000000 0.000000 0.000000 10.000000 
null_rope03_connect 0.000000 0.000000 0.000000 0.000000 0.000000 0.000000 10.000000 
null_rope04_connect 0.000000 0.000000 0.000000 0.000000 0.000000 0.000000 10.000000 
Rope3_Seg01 0.000000 0.000000 0.000000 0.000000 0.000000 0.000000 10.000000 
Rope3_Seg02 0.000000 0.000000 0.000000 0.000000 0.000000 0.000000 10.000000 
Rope3_Seg03 0.000000 0.000000 0.000000 0.000000 0.000000 0.000000 10.000000 
Rope3_Seg04 0.000000 0.000000 0.000000 0.000000 0.000000 0.000000 10.000000 
Rope3_Seg05 0.000000 0.000000 0.000000 0.000000 0.000000 0.000000 10.000000 
Rope3_Seg06 0.000000 0.000000 0.000000 0.000000 0.000000 0.000000 10.000000 
Rope3_Seg07 0.000000 0.000000 0.000000 0.000000 0.000000 0.000000 10.000000 
Rope3_Seg08 0.000000 0.000000 0.000000 0.000000 0.000000 0.000000 10.000000 
Rope3_Seg09 0.000000 0.000000 0.000000 0.000000 0.000000 0.000000 10.000000 
R_rear_hand01 0.000000 0.000000 0.000000 0.000000 0.000000 0.000000 10.000000 
R_rear_hand02 0.000000 0.000000 0.000000 0.000000 0.000000 0.000000 10.000000 
R_rear_hand03 0.000000 0.000000 0.000000 0.000000 0.000000 0.000000 10.000000 
Rope4_Seg01 0.000000 0.000000 0.000000 0.000000 0.000000 0.000000 10.000000 
Rope4_Seg02 0.000000 0.000000 0.000000 0.000000 0.000000 0.000000 10.000000 
Rope4_Seg03 0.000000 0.000000 0.000000 0.000000 0.000000 0.000000 10.000000 
Rope4_Seg04 0.000000 0.000000 0.000000 0.000000 0.000000 0.000000 10.000000 
Rope4_Seg05 0.000000 0.000000 0.000000 0.000000 0.000000 0.000000 10.000000 
Rope4_Seg06 0.000000 0.000000 0.000000 0.000000 0.000000 0.000000 10.000000 
Rope4_Seg07 0.000000 0.000000 0.000000 0.000000 0.000000 0.000000 10.000000 
Rope4_Seg08 0.000000 0.000000 0.000000 0.000000 0.000000 0.000000 10.000000 
Rope4_Seg09 0.000000 0.000000 0.000000 0.000000 0.000000 0.000000 10.000000 
L_rear_hand01 0.000000 0.000000 0.000000 0.000000 0.000000 0.000000 10.000000 
L_rear_hand02 0.000000 0.000000 0.000000 0.000000 0.000000 0.000000 10.000000 
L_rear_hand03 0.000000 0.000000 0.000000 0.000000 0.000000 0.000000 10.000000 
#Beginning of Data. Separated by tabs
#Fr	Tx	Ty	Tz	Rx	Ry	Rz	SF
[MASTER]
3 -0.000049 340.585876 0.295486 0.001660 0.001660 0.001660 340.586029
4 -0.000075 511.698975 357.612732 0.001660 0.001660 0.001660 624.277710
[root]
3 -17.864712 0.090408 1451.780273 -90.613464 -8.451450 -89.931458 1451.890259
4 -19.392557 -5.546429 1455.660645 -89.446327 -7.150203 -90.413750 1455.800415
[chest]
3 -84.512650 -34.090519 0.000000 -1.708001 -0.602593 -175.822021 91.129311
4 -84.512650 -34.090519 0.000000 -1.488119 -0.978437 -164.604355 91.129311
[L_mid_tent01]
3 27.299070 22.179146 -249.918701 -11.992191 14.418592 36.248886 252.381683
4 27.299076 22.179165 -249.918701 -7.450160 14.286269 47.999664 252.381683
[R_mid_tent01]
3 23.228794 24.509907 226.238495 -177.951782 -14.514567 43.307152 228.744751
4 23.228794 24.509907 226.238495 176.202866 -10.893057 52.492928 228.744751
[spine01]
3 -0.361383 -0.195265 0.000000 0.001950 0.001306 22.374409 0.410763
4 -0.361383 -0.195265 0.000000 0.001952 0.001304 22.490377 0.410763
[Bip01_Neck]
3 165.484543 71.581718 0.000119 176.643677 -1.657966 43.431908 180.302734
4 165.484543 71.581718 0.000119 176.643677 -1.657966 43.431911 180.302734
[L_humerus]
3 -13.983130 -135.272980 -120.471481 -6.291269 66.547424 83.666084 181.680161
4 -13.983130 -135.272980 -120.471481 -6.544027 65.697800 83.375542 181.680161
[R_humerus]
3 -13.983309 -135.273102 125.287651 26.710190 -67.467712 68.976006 184.909012
4 -13.983309 -135.273102 125.287651 26.347176 -66.574463 69.348160 184.909012
[weapon_bone]
3 235.964890 -300.705902 0.000000 0.000000 -89.951546 -128.212341 382.234833
4 235.964890 -300.705902 0.000000 0.000000 -89.951546 -128.212341 382.234833
[Bip01_Head]
3 213.438599 185.731354 11.571889 4.965356 3.801409 -43.882862 283.171478
4 213.435822 185.739365 11.469371 4.968390 5.247288 -43.853752 283.170471
[eye_left_bone]
3 -24.626970 125.451866 -64.772606 0.000000 -90.000000 -99.840431 143.318359
4 -24.626970 125.451866 -64.772606 0.000000 -90.000000 -99.840431 143.318359
[eye_right_bone]
3 -24.626970 125.451866 64.327362 0.000000 -89.965736 80.156380 143.117676
4 -24.626970 125.451866 64.327362 0.000000 -89.965736 80.156380 143.117676
[L_forearm]
3 322.776093 0.000000 -0.000119 0.000412 -0.002311 -110.205757 322.776093
4 322.776093 0.000000 -0.000119 0.000418 -0.002310 -110.494949 322.776093
[L_front_hand]
3 241.149185 -0.042021 -3.300071 -178.667953 -1.835447 -27.422350 241.171753
4 241.149185 -0.042021 -3.300071 -178.667953 -1.835447 -27.422350 241.171753
[L_weapon_bone]
3 156.183838 0.000000 0.000000 0.000014 0.000007 0.000001 156.183838
4 156.183838 0.000000 0.000000 0.000014 0.000007 0.000001 156.183838
[L_front_hand01_01]
3 86.095154 20.947098 -0.655860 -0.366594 -0.477154 75.385574 88.609184
4 86.095154 20.947098 -0.655860 -0.365371 -0.478091 75.092094 88.609184
[L_front_hand02_01]
3 86.935165 -11.437475 24.513514 154.399796 -59.883835 -61.369587 91.046425
4 86.935165 -11.437475 24.513514 153.946487 -59.758568 -60.843468 91.046425
[L_front_hand03_01]
3 86.637497 -14.123976 -20.424902 -153.913849 58.118122 -62.702866 90.126129
4 86.637497 -14.123976 -20.424902 -153.504349 57.989803 -62.217342 90.126129
[L_front_hand01_02]
3 71.020905 -0.000179 0.000030 0.000320 -0.002325 -105.686226 71.020905
4 71.020905 -0.000179 0.000030 0.000320 -0.002325 -105.648979 71.020905
[L_front_hand02_02]
3 71.020927 -0.000119 0.000060 0.000320 -0.002325 -105.686226 71.020927
4 71.020927 -0.000119 0.000060 0.000320 -0.002325 -105.648979 71.020927
[L_front_hand03_02]
3 71.020905 -0.000060 0.000060 0.000320 -0.002325 -105.686226 71.020905
4 71.020905 -0.000060 0.000060 0.000320 -0.002325 -105.648979 71.020905
[R_forearm]
3 322.776428 -0.000060 0.000030 0.201644 0.066564 -108.861320 322.776428
4 322.776428 -0.000060 0.000030 0.201474 0.067077 -109.152901 322.776428
[R_front_hand]
3 238.847015 -0.006795 2.210259 -2.635298 -10.645460 -26.312500 238.857239
4 238.847015 -0.006795 2.210259 -2.635298 -10.645460 -26.312500 238.857239
[R_weapon_bone]
3 155.664093 0.002503 -0.000030 0.003487 0.001180 -90.988930 155.664078
4 155.664093 0.002503 -0.000030 0.003487 0.001180 -90.988930 155.664078
[R_front_hand01_01]
3 87.624611 14.231146 22.918642 -154.633499 -59.950619 61.746044 91.683487
4 87.624611 14.231146 22.918642 -154.238968 -59.839840 61.284889 91.683487
[R_front_hand02_01]
3 89.356956 14.367283 -19.491137 154.602661 58.302849 63.744389 92.579636
4 89.356956 14.367283 -19.491137 154.231567 58.196690 63.311184 92.579636
[R_front_hand03_01]
3 87.286232 -22.307278 -0.143439 0.162155 -0.423168 -75.767921 90.091743
4 87.286232 -22.307278 -0.143439 0.161230 -0.423521 -75.517479 90.091743
[R_front_hand01_02]
3 71.020905 0.000060 0.000119 0.002323 -0.000334 106.381714 71.020905
4 71.020905 0.000060 0.000119 0.002323 -0.000334 106.381714 71.020905
[R_front_hand02_02]
3 71.020844 -0.000030 -0.000119 0.002323 -0.000334 106.381714 71.020836
4 71.020844 -0.000030 -0.000119 0.002323 -0.000334 106.381714 71.020836
[R_front_hand03_02]
3 71.020905 0.000000 0.000030 0.002323 -0.000334 106.381714 71.020905
4 71.020905 0.000000 0.000030 0.002323 -0.000334 106.381714 71.020905
[null_rope01_connect]
3 328.732483 0.000000 -0.000238 -158.856110 -70.750664 -140.432877 328.732483
4 328.732483 0.000000 -0.000238 -156.928680 -74.307281 -154.930496 328.732483
[Rope1_Seg01]
3 0.000073 -0.000035 0.000140 -27.442448 20.396318 -92.929260 0.000162
4 0.000072 -0.000033 0.000134 -56.101974 42.816418 -78.071884 0.000155
[Rope1_Seg02]
3 139.999863 -0.000179 0.000000 4.136734 2.604870 -5.267257 139.999863
4 139.999863 -0.000179 0.000000 -1.692256 4.538380 -3.506234 139.999863
[Rope1_Seg03]
3 139.999924 0.000060 -0.000060 13.455460 5.303270 -9.500524 139.999924
4 139.999924 0.000060 -0.000060 -10.459111 10.283677 -4.867023 139.999924
[Rope1_Seg04]
3 139.999924 -0.000060 -0.000119 3.052199 -2.301998 1.588212 139.999924
4 139.999924 -0.000060 -0.000119 -1.679576 5.170921 -5.180601 139.999924
[Rope1_Seg05]
3 139.999832 0.000119 -0.000060 -9.410924 -4.891259 11.308424 139.999832
4 139.999832 0.000119 -0.000060 32.765942 -15.954156 -4.862190 139.999832
[Rope1_Seg06]
3 139.999954 0.000119 -0.000060 -1.056356 -2.405861 3.482308 139.999954
4 139.999954 0.000119 -0.000060 5.606844 -5.490251 0.976900 139.999954
[Rope1_Seg07]
3 139.999985 0.000060 0.000000 -0.461062 -1.508599 2.080285 139.999985
4 139.999985 0.000060 0.000000 2.568068 -3.068940 0.798881 139.999985
[Rope1_Seg09]
3 121.602913 0.000119 -0.000089 -89.793175 -1.359789 0.847147 121.602913
4 121.602913 0.000119 -0.000089 -89.793175 -1.359789 0.847147 121.602913
[L_mid_hand01]
3 103.859421 1.038730 8.195221 124.165955 -63.799015 -31.873352 104.187431
4 103.859421 1.038730 8.195221 119.391953 -59.659550 -26.459229 104.187431
[L_mid_hand02]
3 105.572853 -4.139662 -10.864139 -164.626358 42.318848 -67.191460 106.211075
4 105.572853 -4.139662 -10.864139 -160.502609 40.861904 -60.979630 106.211075
[L_mid_hand03]
3 104.641464 17.579376 -3.913581 -7.501869 17.251593 69.949562 106.179977
4 104.641464 17.579376 -3.913581 -8.971709 16.553080 64.913109 106.179977
[null_rope02_connect]
3 328.732849 0.000179 -0.000119 -131.290451 75.768791 -6.122029 328.732849
4 328.732849 0.000179 -0.000119 -119.179916 78.520576 15.733774 328.732849
[Rope2_Seg01]
3 0.000041 0.000140 0.000000 128.034973 31.647415 -77.404198 0.000146
4 0.000043 0.000134 0.000000 134.761154 55.952824 -96.124321 0.000140
[Rope2_Seg02]
3 139.999741 -0.000060 -0.000119 -14.782498 13.235734 1.299566 139.999756
4 139.999741 -0.000060 -0.000119 -2.739742 13.915078 -3.996431 139.999756
[Rope2_Seg03]
3 140.000107 0.000030 0.000000 -22.264576 12.689675 -0.385655 140.000107
4 140.000107 0.000030 0.000000 5.766059 15.799547 -10.830845 140.000107
[Rope2_Seg04]
3 139.999802 0.000000 -0.000060 0.929061 -12.518921 4.981425 139.999802
4 139.999802 0.000000 -0.000060 -18.532825 5.961281 4.273497 139.999802
[Rope2_Seg05]
3 139.999985 -0.000060 0.000119 2.931476 -18.247341 4.859042 139.999985
4 139.999985 -0.000060 0.000119 -25.504139 -11.376086 25.421278 139.999985
[Rope2_Seg06]
3 139.999893 -0.000030 -0.000119 0.047835 -7.093424 2.853175 139.999893
4 139.999893 -0.000030 -0.000119 -4.921998 -10.235714 10.455237 139.999893
[Rope2_Seg07]
3 139.999893 0.000060 -0.000060 -0.003771 -4.431270 1.803460 139.999893
4 139.999893 0.000060 -0.000060 -1.647704 -5.648447 5.294491 139.999893
[Rope2_Seg09]
3 121.338966 0.000089 -0.000060 33.793236 -1.359788 -0.847141 121.338966
4 121.338966 0.000089 -0.000060 33.793236 -1.359788 -0.847141 121.338966
[R_mid_hand01]
3 104.680779 11.144459 -10.335981 -18.237753 44.607113 67.592667 105.778534
4 104.680779 11.144459 -10.335981 -20.399712 43.830379 64.493820 105.778534
[R_mid_hand02]
3 104.070427 2.443552 8.231699 52.237907 -66.108360 35.844143 104.424065
4 104.070427 2.443552 8.231699 55.242668 -64.206009 32.532043 104.424065
[R_mid_hand03]
3 106.028137 -11.221827 -5.996406 -176.510086 15.433296 -74.380737 106.788818
4 106.028137 -11.221827 -5.996406 -175.861618 15.275426 -71.940247 106.788818
[spine02]
3 129.756927 0.001550 0.000119 0.439555 -4.036186 -14.054000 129.756927
4 129.756927 0.001550 0.000119 0.469076 -4.032681 -14.473958 129.756927
[spine03]
3 78.614075 0.081596 -4.899007 1.943974 3.810873 17.184675 78.766609
4 78.614075 0.081577 -4.899007 1.961666 3.800051 17.445362 78.766617
[pelvis]
3 169.435242 0.051022 0.000000 -0.062727 -0.179450 15.529260 169.435257
4 169.435242 0.051022 0.000000 -0.068444 -0.178471 16.053537 169.435257
[null_rope03_connect]
3 -1.257226 -2.466202 137.391083 -0.905009 -89.397369 58.337185 137.418976
4 -1.257226 -2.466202 137.391083 -11.293231 -88.170509 66.941994 137.418976
[null_rope04_connect]
3 -1.259640 -2.480268 -137.844437 -0.905009 -89.397369 58.337185 137.872513
4 -1.259640 -2.480268 -137.844437 -11.293231 -88.170509 66.941994 137.872513
[Rope3_Seg01]
3 0.000010 0.000035 -0.000140 -141.839386 32.121819 -95.563736 0.000144
4 0.000010 0.000033 -0.000134 -147.856491 39.765804 -99.752609 0.000138
[Rope3_Seg02]
3 139.999924 -0.000119 0.000060 -0.426086 -5.716827 -4.930483 139.999924
4 139.999924 -0.000119 0.000060 -0.989179 -6.623537 -4.465400 139.999924
[Rope3_Seg03]
3 139.999924 -0.000119 0.000119 0.069415 -6.919911 -6.858994 139.999924
4 139.999924 -0.000119 0.000119 -0.390138 -7.979761 -6.121655 139.999924
[Rope3_Seg04]
3 139.999924 0.000119 0.000000 0.704320 -8.593282 -9.594853 139.999924
4 139.999924 0.000119 0.000000 0.852561 -11.352305 -10.490036 139.999924
[Rope3_Seg05]
3 139.999924 -0.000238 0.000060 0.416190 3.125968 8.089172 139.999924
4 139.999924 -0.000238 0.000060 0.300024 2.388081 5.991277 139.999924
[Rope3_Seg06]
3 139.999893 -0.000119 -0.000060 0.916197 6.557620 12.263977 139.999893
4 139.999893 -0.000119 -0.000060 1.686377 9.638202 14.156728 139.999893
[Rope3_Seg07]
3 139.999771 0.000060 -0.000119 0.308403 2.413809 5.154563 139.999771
4 139.999771 0.000060 -0.000119 0.620958 3.940699 6.325881 139.999771
[Rope3_Seg08]
3 139.999985 -0.000060 0.000000 0.330414 1.501536 3.186759 139.999985
4 139.999985 -0.000060 0.000000 0.515952 2.374838 3.797349 139.999985
[Rope3_Seg09]
3 90.185997 -0.000179 -0.000060 89.793228 -1.359877 -0.847183 90.185997
4 90.185997 -0.000179 -0.000060 89.793228 -1.359877 -0.847183 90.185997
[R_rear_hand01]
3 103.366196 -6.073594 -10.757982 -176.465668 24.425859 -70.909309 104.101845
4 103.366196 -6.073594 -10.757982 -175.114853 24.208797 -67.632149 104.101845
[R_rear_hand02]
3 100.509819 12.039542 -7.992327 -14.843726 36.213379 68.859123 101.543350
4 100.509819 12.039542 -7.992327 -16.923939 35.395069 65.303368 101.543350
[R_rear_hand03]
3 101.539970 5.215704 5.435467 73.787918 -69.202950 19.069901 101.819031
4 101.539970 5.215704 5.435467 75.730560 -66.314209 16.974052 101.819031
[Rope4_Seg01]
3 -0.000018 -0.000035 -0.000191 53.548542 37.821983 -99.578255 0.000195
4 -0.000018 -0.000033 -0.000210 59.519764 40.728317 -91.119102 0.000213
[Rope4_Seg02]
3 139.999985 0.000060 0.000119 0.152963 -1.312496 -1.117910 139.999985
4 139.999985 0.000060 0.000119 1.194589 -3.008685 -5.251306 139.999985
[Rope4_Seg03]
3 139.999924 0.000000 -0.000238 0.167914 -1.554455 -1.316325 139.999924
4 139.999924 0.000000 -0.000238 0.911606 -3.307652 -5.434735 139.999924
[Rope4_Seg04]
3 139.999985 0.000000 0.000119 0.168805 -5.557155 -2.423048 139.999985
4 139.999985 0.000000 0.000119 1.007079 -8.508429 -9.546844 139.999985
[Rope4_Seg05]
3 139.999802 -0.000060 -0.000119 0.136375 0.715558 -1.397180 139.999802
4 139.999802 -0.000060 -0.000119 -0.080773 -0.450618 -2.941053 139.999802
[Rope4_Seg06]
3 139.999924 0.000000 0.000060 0.580575 9.651454 1.271689 139.999924
4 139.999924 0.000000 0.000060 0.834372 12.033378 7.370321 139.999924
[Rope4_Seg07]
3 139.999802 0.000000 0.000000 0.517635 4.412490 0.417554 139.999802
4 139.999802 0.000000 0.000000 0.286465 9.859524 6.120165 139.999802
[Rope4_Seg08]
3 139.999924 0.000000 0.000119 -1.197920 2.233756 0.126714 139.999924
4 139.999924 0.000000 0.000119 -1.520307 4.598018 2.539653 139.999924
[Rope4_Seg09]
3 90.185791 0.000060 0.000060 -135.617828 2.228885 0.850567 90.185791
4 90.185791 0.000060 0.000060 -135.617828 2.228885 0.850567 90.185791
[L_rear_hand01]
3 101.696655 -8.392275 -7.654577 -18.919888 -34.466518 118.185951 102.329041
4 101.696655 -8.392275 -7.654577 -23.837845 -31.499460 127.199913 102.329041
[L_rear_hand02]
3 102.726799 -1.568258 5.773216 77.226944 63.386848 164.679077 102.900848
4 102.726799 -1.568258 5.773216 79.944244 55.427822 167.828537 102.900848
[L_rear_hand03]
3 104.552910 9.721220 -10.420293 -173.780411 -23.916803 -115.646591 105.519653
4 104.552910 9.721220 -10.420293 -170.300720 -22.790039 -124.406273 105.519653
